HIERARCHY
ROOT root
{
	OFFSET	0	13.1	24.9
	CHANNELS 6  Xposition Yposition Zposition Xrotation Yrotation Zrotation
	JOINT spine_1
	{
		OFFSET	0	9.99999	0
		CHANNELS 3  Xrotation Yrotation Zrotation
		JOINT spine_2
		{
			OFFSET	0	112	-10
			CHANNELS 3  Xrotation Yrotation Zrotation
			JOINT spine_3
			{
				OFFSET	0	206.5	19.3
				CHANNELS 3  Xrotation Yrotation Zrotation
				JOINT spine_4
				{
					OFFSET	0	110.4	14.6
					CHANNELS 3  Xrotation Yrotation Zrotation
					JOINT neck_1
					{
						OFFSET	0	71.8	-50.3
						CHANNELS 3  Xrotation Yrotation Zrotation
						JOINT neck_2
						{
							OFFSET	0	86.2	-25.8
							CHANNELS 3  Xrotation Yrotation Zrotation
							JOINT head_ee
							{
								OFFSET	0	179.8	-8.7
								CHANNELS 3  Xrotation Yrotation Zrotation
								End Site
								{
									OFFSET	1	0	0
								}
							}
						}
					}
					JOINT left_clavicle
					{
						OFFSET	-43.2	22.4	-70.8
						CHANNELS 3  Xrotation Yrotation Zrotation
						JOINT left_shoulder
						{
							OFFSET	-93.9	-5.79999	48.7
							CHANNELS 3  Xrotation Yrotation Zrotation
							JOINT left_elbow
							{
								OFFSET	-291.4	-30.8	15.2
								CHANNELS 3  Xrotation Yrotation Zrotation
								JOINT left_lowarm_twist
								{
									OFFSET	-110.7	-3.89999	13.6
									CHANNELS 3  Xrotation Yrotation Zrotation
									JOINT left_hand
									{
										OFFSET	-110.7	-3.89999	13.6
										CHANNELS 3  Xrotation Yrotation Zrotation
										JOINT left_ee
										{
											OFFSET	-80.8	-5.10001	12.1
											CHANNELS 3  Xrotation Yrotation Zrotation
											End Site
											{
												OFFSET	1	0	0
											}
										}
									}
								}
							}
						}
					}
					JOINT right_clavicle
					{
						OFFSET	43.2	22.4	-70.8
						CHANNELS 3  Xrotation Yrotation Zrotation
						JOINT right_shoulder
						{
							OFFSET	93.9	-5.79999	48.7
							CHANNELS 3  Xrotation Yrotation Zrotation
							JOINT right_elbow
							{
								OFFSET	291.4	-30.8	15.2
								CHANNELS 3  Xrotation Yrotation Zrotation
								JOINT right_lowarm_twist
								{
									OFFSET	110.7	-3.89999	13.6
									CHANNELS 3  Xrotation Yrotation Zrotation
									JOINT right_hand
									{
										OFFSET	110.7	-3.89999	13.6
										CHANNELS 3  Xrotation Yrotation Zrotation
										JOINT right_ee
										{
											OFFSET	80.8	-5.10001	12.1
											CHANNELS 3  Xrotation Yrotation Zrotation
											End Site
											{
												OFFSET	1	0	0
											}
										}
									}
								}
							}
						}
					}
				}
			}
		}
	}
	JOINT left_hip
	{
		OFFSET	-82.8	-127.5	0.300001
		CHANNELS 3  Xrotation Yrotation Zrotation
		JOINT left_knee
		{
			OFFSET	-28.2	-396.7	2.2
			CHANNELS 3  Xrotation Yrotation Zrotation
			JOINT left_ankle
			{
				OFFSET	-11.7	-411.3	35.4
				CHANNELS 3  Xrotation Yrotation Zrotation
				JOINT left_toes
				{
					OFFSET	0	-60	-88.6
					CHANNELS 3  Xrotation Yrotation Zrotation
					JOINT left_foot_ee
					{
						OFFSET	-22.5	-16.5	-42.2
						CHANNELS 3  Xrotation Yrotation Zrotation
						End Site
						{
							OFFSET	1	0	0
						}
					}
				}
			}
		}
	}
	JOINT right_hip
	{
		OFFSET	82.8	-127.5	0.300001
		CHANNELS 3  Xrotation Yrotation Zrotation
		JOINT right_knee
		{
			OFFSET	28.2	-396.7	2.2
			CHANNELS 3  Xrotation Yrotation Zrotation
			JOINT right_ankle
			{
				OFFSET	11.7	-411.3	35.4
				CHANNELS 3  Xrotation Yrotation Zrotation
				JOINT right_toes
				{
					OFFSET	0	-60	-88.6
					CHANNELS 3  Xrotation Yrotation Zrotation
					JOINT right_foot_ee
					{
						OFFSET	22.5	-16.5	-42.2
						CHANNELS 3  Xrotation Yrotation Zrotation
						End Site
						{
							OFFSET	1	0	0
						}
					}
				}
			}
		}
	}
}
MOTION
Frames: 6
Frame Time: 0.02
2109.29 711.009 -529.835 169.718 -78.6556 175.731 -0.436997 -0.206312 -2.05655 -0.434647 -0.0750585 -2.06551 -0.430546 0.376164 -2.03237 -0.436307 0.0505396 -2.06626 -16.9725 7.59922 1.32475 -17.1779 13.8528 4.04509 -0.0 0.0 -0.0 6.21123 22.4118 11.3953 -24.8083 -39.197 54.2225 1.21607 -31.0637 0.337984 -82.6688 -8.15932 5.23586 -1.80127 12.479 -6.23496 -0.0 0.0 -0.0 4.63665 7.02219 -8.61232 -16.0042 26.9327 -63.3155 0.512031 14.2328 -0.0639262 -12.5368 0.606408 -1.4806 -2.88373 11.0447 24.8962 0.0 0.0 0.0 37.0404 64.611 -44.935 -7.27448 0.230445 1.09189 33.552 -31.8423 -5.35954 -12.532 0.0 0.0 -0.0 0.0 -0.0 -1.03852 22.2502 -11.0396 0.017446 0.000718871 0.00258073 39.8654 -16.5896 4.94648 -32.9901 0.0 0.0 0.0 0.0 0.0 
2112.55 707.651 -528.665 168.792 -78.5441 175.116 -0.609233 -0.164947 -2.096 -0.60679 -0.0312691 -2.10225 -0.604143 0.433169 -2.05739 -0.610035 0.102881 -2.09996 -17.026 8.08175 3.32151 -17.1979 13.6696 6.09003 -0.0 0.0 -0.0 6.2044 23.8144 11.2852 -24.9395 -39.3388 54.2573 1.25345 -31.8358 0.357493 -83.497 -8.26354 5.21902 -2.03075 11.9407 -7.95631 -0.0 0.0 -0.0 4.70052 8.71968 -8.64272 -16.2784 27.03 -64.0259 0.427724 11.9632 -0.044817 -12.7619 0.620221 -1.50588 -2.68397 10.4502 23.1595 0.0 0.0 0.0 35.183 63.6356 -43.2183 -7.9116 0.243987 1.18872 36.1254 -31.9948 -5.66306 -13.4418 0.0 0.0 -0.0 0.0 -0.0 -1.50972 20.757 -11.354 -0.749945 -0.0301525 -0.111137 40.1943 -16.5177 4.97496 -33.8117 0.0 0.0 0.0 0.0 0.0 
2118.15 702.816 -528.54 163.559 -78.8267 169.716 -0.833188 -0.206881 -2.06553 -0.830818 -0.0750555 -2.0745 -0.826453 0.392224 -2.03848 -0.832246 0.0654344 -2.07482 -17.4272 7.70765 3.28854 -17.5874 13.0014 5.96781 -0.0 0.0 -0.0 6.00924 24.0901 10.9917 -25.4861 -39.3098 54.2202 1.31299 -33.0391 0.389428 -85.1598 -8.4719 5.18063 -1.81507 10.9945 -7.03122 -0.0 0.0 -0.0 4.65804 7.63689 -8.62031 -16.6206 26.7867 -63.2876 0.457353 12.7656 -0.0511615 -12.422 0.599404 -1.46769 -2.78094 10.9292 24.0854 0.0 0.0 0.0 32.3468 63.6676 -41.1169 -6.40983 0.210345 0.96072 37.3211 -32.5183 -5.83247 -12.0554 0.0 0.0 -0.0 0.0 -0.0 -1.78937 20.2526 -11.1171 -2.4654 -0.0936304 -0.366744 41.5689 -15.3088 5.07581 -32.6587 0.0 0.0 0.0 0.0 0.0 
2124.38 701.369 -527.659 158.21 -79.7467 164.253 -1.03225 -0.16531 -2.04562 -1.02992 -0.034835 -2.05199 -1.02699 0.433417 -2.00602 -1.03259 0.111235 -2.04927 -18.0901 7.69339 4.50471 -18.2144 12.3702 7.17007 -0.0 0.0 -0.0 6.06743 24.6794 11.0307 -25.9699 -39.2814 53.802 1.31945 -33.1676 0.392954 -85.3892 -8.50054 5.17485 -1.81809 10.6035 -7.23714 -0.0 0.0 -0.0 4.73255 7.88854 -8.75888 -16.1945 26.7663 -63.5706 0.422594 11.8238 -0.0437597 -12.3102 0.592608 -1.45511 -2.67392 10.8035 23.2434 0.0 0.0 0.0 30.1232 62.906 -39.6148 -8.24549 0.250654 1.23952 37.0769 -32.308 -5.79005 -10.7122 0.0 0.0 -0.0 0.0 -0.0 -2.10153 19.0921 -11.1189 -6.19462 -0.205035 -0.928121 42.0722 -13.9288 5.09779 -31.8324 0.0 0.0 0.0 0.0 0.0 
2132.05 700.976 -521.349 151.855 -80.2562 157.567 -1.27509 -0.169445 -2.00743 -1.27285 -0.0413898 -2.01414 -1.26963 0.426749 -1.96887 -1.27502 0.110514 -2.01154 -17.0823 8.16728 3.01407 -17.272 14.0098 5.84497 -0.0 0.0 -0.0 6.29236 24.605 11.3475 -24.4696 -34.563 55.8449 1.33066 -33.3899 0.399104 -84.4634 -8.38479 5.19745 -1.59319 9.96611 -6.08961 -0.0 0.0 -0.0 5.34092 5.1673 -10.1438 -14.0962 27.0508 -63.2226 0.309492 8.71652 -0.0235874 -12.0241 0.575329 -1.42284 -2.75632 7.35877 22.2803 0.0 0.0 0.0 27.4347 60.6029 -38.087 -10.5994 0.289234 1.59863 37.1997 -31.8474 -5.76807 -9.69038 0.0 0.0 -0.0 0.0 -0.0 -2.56168 15.0741 -10.818 -11.8321 -0.303543 -1.78723 41.9546 -11.4449 5.05726 -27.4921 0.0 0.0 0.0 0.0 0.0 
2140.94 693.718 -516.411 147.143 -80.1845 152.637 -1.49855 -0.102062 -2.10081 -1.4961 0.0317949 -2.10304 -1.49531 0.526641 -2.03631 -1.50104 0.198509 -2.0939 -18.1728 7.26419 4.52934 -18.2734 11.5384 7.03309 -0.0 0.0 -0.0 5.83536 24.3566 10.7318 -26.4615 -36.7512 55.15 1.32538 -33.2854 0.396204 -84.8341 -8.43119 5.18863 -2.06429 11.3605 -8.45484 -0.0 0.0 -0.0 5.77583 7.89189 -10.9149 -13.6274 27.4428 -63.5348 0.196536 5.56081 -0.00954479 -12.4149 0.598975 -1.4669 -2.4983 8.92945 21.1261 0.0 0.0 0.0 27.9659 58.7648 -38.4436 -15.4949 0.322084 2.34882 37.4637 -30.9789 -5.73171 -8.62078 0.0 0.0 -0.0 0.0 -0.0 -3.11328 16.896 -10.6432 -15.4893 -0.322083 -2.34796 41.8282 -11.7661 5.05 -24.7003 0.0 0.0 0.0 0.0 0.0 
